<svg width="48" height="48" viewBox="0 0 48 48" fill="none" xmlns="http://www.w3.org/2000/svg">
<path d="M10.5 18C9.01664 18 7.5666 17.5601 6.33323 16.736C5.09986 15.9119 4.13856 14.7406 3.57091 13.3701C3.00325 11.9997 2.85472 10.4917 3.14411 9.03683C3.4335 7.58197 4.14781 6.2456 5.1967 5.1967C6.2456 4.14781 7.58197 3.4335 9.03683 3.14411C10.4917 2.85472 11.9997 3.00325 13.3701 3.57091C14.7406 4.13856 15.9119 5.09986 16.736 6.33323C17.5601 7.5666 18 9.01664 18 10.5H15C15 9.60999 14.7361 8.73996 14.2416 7.99994C13.7472 7.25992 13.0443 6.68314 12.2221 6.34255C11.3998 6.00195 10.495 5.91284 9.6221 6.08647C8.74918 6.2601 7.94736 6.68869 7.31802 7.31802C6.68869 7.94736 6.2601 8.74918 6.08647 9.6221C5.91284 10.495 6.00195 11.3998 6.34255 12.2221C6.68314 13.0443 7.25992 13.7472 7.99994 14.2416C8.73996 14.7361 9.60999 15 10.5 15V18ZM37.5 18V15C38.39 15 39.26 14.7361 40.0001 14.2416C40.7401 13.7472 41.3169 13.0443 41.6575 12.2221C41.9981 11.3998 42.0872 10.495 41.9135 9.6221C41.7399 8.74918 41.3113 7.94736 40.682 7.31802C40.0527 6.68869 39.2508 6.2601 38.3779 6.08647C37.505 5.91284 36.6002 6.00195 35.7779 6.34255C34.9557 6.68314 34.2529 7.25992 33.7584 7.99994C33.2639 8.73996 33 9.60999 33 10.5H30C30 9.01664 30.4399 7.5666 31.264 6.33323C32.0881 5.09986 33.2594 4.13856 34.6299 3.57091C36.0003 3.00325 37.5083 2.85472 38.9632 3.14411C40.418 3.4335 41.7544 4.14781 42.8033 5.1967C43.8522 6.2456 44.5665 7.58197 44.8559 9.03683C45.1453 10.4917 44.9968 11.9997 44.4291 13.3701C43.8614 14.7406 42.9002 15.9119 41.6668 16.736C40.4334 17.5601 38.9834 18 37.5 18ZM10.5 45C8.51088 45 6.60323 44.2098 5.1967 42.8033C3.79018 41.3968 3 39.4891 3 37.5C3 35.5109 3.79018 33.6032 5.1967 32.1967C6.60323 30.7902 8.51088 30 10.5 30V33C9.60999 33 8.73996 33.2639 7.99994 33.7584C7.25992 34.2529 6.68314 34.9557 6.34255 35.7779C6.00195 36.6002 5.91284 37.505 6.08647 38.3779C6.2601 39.2508 6.68869 40.0526 7.31802 40.682C7.94736 41.3113 8.74918 41.7399 9.6221 41.9135C10.495 42.0872 11.3998 41.9981 12.2221 41.6575C13.0443 41.3169 13.7472 40.7401 14.2416 40.0001C14.7361 39.26 15 38.39 15 37.5H18C17.998 39.4885 17.2072 41.395 15.8011 42.8011C14.395 44.2072 12.4885 44.998 10.5 45ZM37.5 45C35.5115 44.998 33.605 44.2072 32.1989 42.8011C30.7928 41.395 30.002 39.4885 30 37.5H33C33 38.39 33.2639 39.26 33.7584 40.0001C34.2529 40.7401 34.9557 41.3169 35.7779 41.6575C36.6002 41.9981 37.505 42.0872 38.3779 41.9135C39.2508 41.7399 40.0527 41.3113 40.682 40.682C41.3113 40.0526 41.7399 39.2508 41.9135 38.3779C42.0872 37.505 41.9981 36.6002 41.6575 35.7779C41.3169 34.9557 40.7401 34.2529 40.0001 33.7584C39.26 33.2639 38.39 33 37.5 33V30C39.4891 30 41.3968 30.7902 42.8033 32.1967C44.2098 33.6032 45 35.5109 45 37.5C45 39.4891 44.2098 41.3968 42.8033 42.8033C41.3968 44.2098 39.4891 45 37.5 45Z" fill="black" fill-opacity="0.54"/>
<path d="M30 27.8818V20.1238L38.5605 11.5633C38.7038 11.4249 38.818 11.2594 38.8966 11.0764C38.9753 10.8934 39.0166 10.6966 39.0184 10.4974C39.0201 10.2982 38.9821 10.1007 38.9067 9.91638C38.8313 9.73203 38.7199 9.56455 38.5791 9.42371C38.4382 9.28288 38.2708 9.1715 38.0864 9.09607C37.9021 9.02065 37.7046 8.9827 37.5054 8.98443C37.3062 8.98616 37.1094 9.02754 36.9264 9.10616C36.7434 9.18477 36.5779 9.29904 36.4395 9.44231L29.6895 16.1923C29.3117 14.9786 28.5557 13.9174 27.532 13.1639C26.5083 12.4103 25.2704 12.0039 23.9992 12.0039C22.7281 12.0039 21.4902 12.4103 20.4665 13.1639C19.4427 13.9174 18.6868 14.9786 18.309 16.1923L11.5605 9.44231C11.2792 9.1611 10.8977 9.00313 10.5 9.00313C10.1022 9.00313 9.72078 9.1611 9.43949 9.44231C9.15828 9.7236 9.00031 10.1051 9.00031 10.5028C9.00031 10.9006 9.15828 11.282 9.43949 11.5633L18 20.1238V27.8818L9.43949 36.4423C9.15828 36.7236 9.00031 37.1051 9.00031 37.5028C9.00031 37.9006 9.15828 38.282 9.43949 38.5633C9.72078 38.8445 10.1022 39.0025 10.5 39.0025C10.8977 39.0025 11.2792 38.8445 11.5605 38.5633L18.3105 31.8133C18.6883 33.027 19.4442 34.0882 20.468 34.8417C21.4917 35.5953 22.7296 36.0017 24.0007 36.0017C25.2719 36.0017 26.5098 35.5953 27.5335 34.8417C28.5572 34.0882 29.3132 33.027 29.691 31.8133L36.441 38.5633C36.7239 38.8365 37.1028 38.9877 37.4961 38.9843C37.8894 38.9809 38.2656 38.8231 38.5437 38.545C38.8218 38.2669 38.9796 37.8907 38.983 37.4974C38.9864 37.1041 38.8352 36.7252 38.562 36.4423L30 27.8818ZM27 30.0028C27 30.7985 26.6839 31.5615 26.1213 32.1241C25.5587 32.6867 24.7956 33.0028 24 33.0028C23.2043 33.0028 22.4413 32.6867 21.8787 32.1241C21.3161 31.5615 21 30.7985 21 30.0028V18.0028C21 17.2072 21.3161 16.4441 21.8787 15.8815C22.4413 15.3189 23.2043 15.0028 24 15.0028C24.7956 15.0028 25.5587 15.3189 26.1213 15.8815C26.6839 16.4441 27 17.2072 27 18.0028V30.0028Z" fill="black" fill-opacity="0.54"/>
</svg>
