<svg width="287" height="286" viewBox="0 0 287 286" fill="none" xmlns="http://www.w3.org/2000/svg">
<ellipse cx="143.904" cy="143.43" rx="142.952" ry="142.524" fill="white"/>
<g clip-path="url(#clip0_987_74265)">
<path d="M94.4669 103.248C96.493 104.748 98.0531 106.843 99.1473 109.535C100.241 112.227 100.788 115.306 100.788 118.772C100.788 122.205 100.236 125.268 99.1299 127.962C98.0242 130.656 96.4573 132.765 94.4293 134.29C92.4078 135.827 89.9293 136.643 87.3899 136.606H77.2188V101.002H87.3899C89.9311 100.956 92.4172 101.745 94.4669 103.248V103.248ZM91.7519 125.487C92.9425 123.907 93.5378 121.668 93.5378 118.772C93.5378 115.846 92.9425 113.583 91.7519 111.981C90.5613 110.379 88.9211 109.581 86.8313 109.584H84.3536V127.861H86.8313C88.923 127.861 90.5632 127.07 91.7519 125.487Z" fill="#5999E5"/>
<path d="M116.998 136.604L111.897 123.465H111.125V136.604H103.993V101H115.249C117.312 101 119.06 101.497 120.494 102.491C121.948 103.51 123.076 104.93 123.739 106.578C124.488 108.43 124.859 110.413 124.83 112.411C124.875 114.625 124.378 116.817 123.383 118.796C122.497 120.562 121.007 121.951 119.183 122.71L124.972 136.604H116.998ZM111.125 116.7H114.659C115.624 116.7 116.352 116.381 116.844 115.742C117.336 115.104 117.579 114.178 117.574 112.966C117.574 111.808 117.322 110.92 116.827 110.263C116.572 109.936 116.241 109.675 115.864 109.504C115.486 109.332 115.073 109.255 114.659 109.279H111.125V116.7Z" fill="#5999E5"/>
<path d="M188.569 136.604H181.431L171.923 116.7V136.604H164.782V101H171.923L181.431 121.144V101H188.569V136.604Z" fill="#5999E5"/>
<path d="M199.791 108.925V114.732H207.988V122.258H199.791V128.667H209.079V136.604H192.65V101H209.079V108.925H199.791Z" fill="#5999E5"/>
<g filter="url(#filter0_ddd_987_74265)">
<path d="M146.91 236.262C145.47 236.741 143.915 236.74 142.476 236.258L43.7776 203.213C40.9237 202.258 39 199.585 39 196.575V150C39 146.134 42.134 143 46 143H244C247.866 143 251 146.134 251 150V196.566C251 199.58 249.071 202.256 246.211 203.208L146.91 236.262Z" fill="#3C608B"/>
</g>
<path d="M146.875 232.305C145.474 232.757 143.966 232.755 142.565 232.301L46.84 201.248C43.9543 200.312 42 197.623 42 194.589V153C42 149.134 45.134 146 49 146H241C244.866 146 248 149.134 248 153V194.581C248 197.619 246.041 200.31 243.149 201.243L146.875 232.305Z" fill="#3C608B"/>
<path fill-rule="evenodd" clip-rule="evenodd" d="M47.4571 199.345L143.183 230.399C144.183 230.723 145.26 230.724 146.261 230.401L242.535 199.339C244.6 198.673 246 196.751 246 194.581V153C246 150.239 243.761 148 241 148H49C46.2386 148 44 150.239 44 153V194.589C44 196.756 45.3959 198.677 47.4571 199.345ZM142.565 232.301C143.966 232.755 145.474 232.757 146.875 232.305L243.149 201.243C246.041 200.31 248 197.619 248 194.581V153C248 149.134 244.866 146 241 146H49C45.134 146 42 149.134 42 153V194.589C42 197.623 43.9543 200.312 46.84 201.248L142.565 232.301Z" fill="#5999E5"/>
<path d="M144.7 101.336C149.384 101.336 153.4 103.041 156.75 106.451C158.37 108.047 159.651 109.954 160.514 112.058C161.378 114.161 161.806 116.418 161.775 118.692C161.775 123.516 160.087 127.621 156.712 131.006C153.337 134.39 149.236 136.079 144.408 136.071C142.122 136.108 139.853 135.674 137.741 134.799C135.629 133.923 133.719 132.623 132.13 130.98C130.487 129.388 129.188 127.476 128.313 125.363C127.438 123.249 127.005 120.979 127.041 118.692C127.041 113.845 128.749 109.74 132.164 106.378C135.58 103.017 139.758 101.336 144.7 101.336Z" fill="#5999E5"/>
<path d="M144.394 133.173C141.531 133.173 138.733 132.324 136.353 130.734C133.973 129.143 132.118 126.883 131.023 124.238C129.928 121.594 129.641 118.684 130.199 115.876C130.758 113.069 132.136 110.49 134.16 108.466C136.184 106.442 138.763 105.063 141.57 104.505C144.378 103.946 147.288 104.233 149.932 105.328C152.577 106.424 154.837 108.279 156.427 110.659C158.017 113.039 158.866 115.837 158.866 118.7C158.862 122.537 157.335 126.215 154.622 128.929C151.909 131.642 148.231 133.168 144.394 133.173V133.173ZM144.394 105.228C141.729 105.228 139.125 106.018 136.91 107.498C134.694 108.979 132.968 111.083 131.948 113.544C130.929 116.006 130.662 118.715 131.182 121.328C131.701 123.941 132.984 126.341 134.868 128.225C136.752 130.109 139.153 131.392 141.766 131.912C144.379 132.432 147.087 132.165 149.549 131.146C152.01 130.126 154.114 128.399 155.594 126.184C157.075 123.969 157.865 121.364 157.865 118.7C157.861 115.128 156.44 111.704 153.915 109.178C151.389 106.652 147.965 105.232 144.394 105.228V105.228Z" fill="white"/>
<path d="M144.393 106.258C141.932 106.258 139.526 106.988 137.479 108.355C135.432 109.723 133.837 111.667 132.895 113.941C131.953 116.216 131.706 118.718 132.186 121.133C132.667 123.547 133.852 125.765 135.593 127.506C137.333 129.247 139.551 130.432 141.965 130.912C144.38 131.393 146.882 131.146 149.156 130.204C151.431 129.262 153.375 127.667 154.742 125.62C156.11 123.573 156.84 121.166 156.84 118.705C156.84 115.404 155.528 112.238 153.194 109.903C150.86 107.569 147.694 106.258 144.393 106.258V106.258ZM150.724 118.893L140.011 125.029C139.979 125.049 139.941 125.059 139.903 125.06C139.865 125.06 139.828 125.05 139.795 125.032C139.762 125.013 139.735 124.985 139.716 124.952C139.697 124.92 139.687 124.882 139.687 124.844V112.562C139.687 112.524 139.697 112.487 139.716 112.454C139.735 112.422 139.762 112.394 139.795 112.375C139.828 112.356 139.865 112.346 139.903 112.346C139.941 112.346 139.978 112.355 140.011 112.374L150.721 118.516C150.754 118.535 150.782 118.562 150.801 118.595C150.82 118.628 150.831 118.666 150.831 118.704C150.831 118.742 150.822 118.78 150.803 118.813C150.784 118.846 150.757 118.873 150.724 118.893V118.893Z" fill="white"/>
<path d="M55.8915 182.919V188.68C55.8915 188.893 55.9982 189 56.2115 189H58.0675C58.2808 189 58.3875 188.893 58.3875 188.68L58.4515 180.167L51.2195 177.031C49.5982 176.306 48.5102 175.559 47.9555 174.792C47.4435 174.023 47.1875 172.85 47.1875 171.271V160.84C47.1875 157.554 47.8915 155.207 49.2995 153.799C50.7075 152.391 52.9902 151.688 56.1475 151.688H58.8355C61.8222 151.815 63.9555 152.605 65.2355 154.056C66.5155 155.463 67.1555 157.725 67.1555 160.84V168.839L58.4515 167.879V160.519C58.4515 160.306 58.3448 160.199 58.1315 160.199H56.2115C55.9982 160.199 55.8915 160.306 55.8915 160.519V169.927L63.1235 173.063C64.7448 173.746 65.8115 174.493 66.3235 175.304C66.8782 176.072 67.1555 177.245 67.1555 178.823V188.36C67.1555 191.474 66.5155 193.757 65.2355 195.208C63.9555 196.616 61.8222 197.384 58.8355 197.512H56.2755C53.0328 197.512 50.7075 196.808 49.2995 195.4C47.8915 193.949 47.1875 191.602 47.1875 188.36V182.919H55.8915Z" fill="white"/>
<path d="M73.1585 197V160.711H71.9425L72.8385 152.199H91.1425L90.6305 160.711H81.8625V170.311H89.7345L89.2225 178.823H81.8625V188.487H91.1425L90.6305 197H73.1585Z" fill="white"/>
<path d="M117.501 178.439V188.36C117.501 191.602 116.775 193.949 115.325 195.4C113.917 196.808 111.57 197.512 108.285 197.512H105.468C102.183 197.512 99.8152 196.808 98.3645 195.4C96.9565 193.949 96.2525 191.602 96.2525 188.36V160.84C96.2525 157.554 96.9565 155.207 98.3645 153.799C99.8152 152.391 102.183 151.688 105.468 151.688H108.285C111.57 151.688 113.917 152.391 115.325 153.799C116.775 155.207 117.501 157.554 117.501 160.84V171.399L108.797 170.439V160.519C108.797 160.306 108.69 160.199 108.477 160.199H105.277C105.063 160.199 104.957 160.306 104.957 160.519V188.68C104.957 188.893 105.063 189 105.277 189H108.477C108.69 189 108.797 188.893 108.797 188.68V178.439H117.501Z" fill="white"/>
<path d="M145.409 188.104C145.409 191.346 144.684 193.693 143.233 195.144C141.825 196.552 139.478 197.256 136.193 197.256H132.737C129.452 197.256 127.084 196.552 125.633 195.144C124.225 193.693 123.521 191.346 123.521 188.104V160.711H122.305L123.201 152.199H132.225V188.424C132.225 188.637 132.332 188.743 132.545 188.743H136.385C136.598 188.743 136.705 188.637 136.705 188.424V152.199H145.409V188.104Z" fill="white"/>
<path d="M151.081 197V160.711H149.865L150.761 152.199H162.473C165.758 152.199 168.105 152.925 169.513 154.375C170.964 155.783 171.689 158.109 171.689 161.351V175.944C171.689 179.229 170.985 181.576 169.577 182.984L173.545 197H164.841L161.513 185.096H159.785V197H151.081ZM162.665 160.711H159.785V176.583H162.665C162.878 176.583 162.985 176.477 162.985 176.264V161.031C162.985 160.818 162.878 160.711 162.665 160.711Z" fill="white"/>
<path d="M178.336 197V160.711H177.12L178.016 152.199H187.04V197H178.336Z" fill="white"/>
<path d="M198.132 197V160.711H192.18V152.199H212.724V160.711H206.836V197H198.132Z" fill="white"/>
<path d="M225.353 197V179.783L217.865 152.199H226.505L229.705 167.367L232.841 152.199H241.481L233.993 179.783V197H225.353Z" fill="white"/>
<path d="M144.197 226.904C144.394 226.966 144.606 226.966 144.803 226.904L211.532 205.703C212.621 205.357 212.372 203.75 211.229 203.75H77.7709C76.6283 203.75 76.3792 205.357 77.4681 205.703L144.197 226.904Z" fill="white"/>
</g>
<path fill-rule="evenodd" clip-rule="evenodd" d="M115.42 63.9249C110.519 63.6384 106.702 61.3089 106.702 58.4749C106.702 55.4478 111.061 53 116.441 53C120.233 53 123.528 54.2457 125.159 56.0022C122.949 54.1647 120.177 53.4609 116.889 53.6789C119.791 53.8284 122.22 54.4699 123.92 55.8714C122.257 54.8748 119.561 54.3142 116.528 54.4824C111.64 54.7565 107.81 56.843 107.928 59.1352C108.016 60.6362 109.797 61.857 112.387 62.4425C114.282 62.8413 116.221 62.9858 118.154 62.8723C116.413 63.1999 114.626 63.1999 112.885 62.8723C111.339 62.5867 109.872 61.9729 108.582 61.0722C111.876 64.0744 117.568 63.7879 121.703 62.3865C123.609 61.7636 126.772 59.185 125.215 56.9801C125.441 57.0968 125.651 57.2435 125.838 57.4161C125.856 57.206 125.833 56.9944 125.769 56.7932C126.059 57.2955 126.213 57.8641 126.218 58.4438C126.218 62.8038 118.845 64.0931 115.451 63.8938L115.42 63.9249ZM117.911 55.2734C117.025 55.1981 116.133 55.2211 115.252 55.3419C112.013 55.7717 109.572 57.3039 109.79 58.7614C109.871 59.3359 110.333 59.7778 111.019 60.1167C111.077 60.1476 111.137 60.1755 111.198 60.2002C111.137 60.1731 111.077 60.1453 111.019 60.1167C110.824 60.0123 110.648 59.8736 110.5 59.7068C110.309 59.4907 110.171 59.2332 110.096 58.9545C109.84 57.4285 112.698 55.8402 116.478 55.3918C116.964 55.3295 117.444 55.2983 117.911 55.2797V55.2734ZM123.677 57.142C125.502 58.4874 123.789 60.1068 121.616 60.9103H121.765L122.388 60.9788C124.362 60.1442 125.832 58.45 123.702 57.1358L123.677 57.142ZM101.402 85.8852C95.0005 85.5115 90 82.4595 90 78.7535C90 74.7921 95.7104 71.5781 102.753 71.5781C107.735 71.5781 112.032 73.1726 114.137 75.5084C111.247 73.1041 107.592 72.1823 103.308 72.4688C107.106 72.6619 110.288 73.5028 112.511 75.3402C110.332 74.0384 106.782 73.3034 102.828 73.5214C96.4203 73.8827 91.3824 76.6357 91.563 79.613C91.6814 81.5812 94.0103 83.182 97.4042 83.973C99.8864 84.4916 102.426 84.6821 104.958 84.5398C102.678 84.9646 100.338 84.9646 98.058 84.5398C96.0413 84.167 94.1293 83.3617 92.4535 82.1792C96.769 86.1156 104.217 85.7419 109.634 83.9045C112.125 83.0574 116.266 79.7189 114.236 76.8226C114.527 76.979 114.797 77.1715 115.04 77.3956C115.062 77.1226 115.033 76.8478 114.953 76.5859C115.33 77.2463 115.532 77.9927 115.538 78.7535C115.507 84.4339 105.855 86.1468 101.402 85.8852ZM104.703 74.5616L104.655 74.5576L104.6 74.5531C104.64 74.5517 104.681 74.5504 104.721 74.5492L104.703 74.5616ZM104.6 74.5531C104.018 74.5736 103.435 74.6163 102.853 74.6862C97.8961 75.2717 94.1536 77.3645 94.4898 79.3576C94.5904 79.7225 94.7728 80.0597 95.0231 80.3435C95.2735 80.6273 95.5852 80.8504 95.9346 80.9957C94.8635 80.5535 94.1847 79.912 94.0664 79.1272C93.7488 77.215 96.9807 75.2094 101.221 74.6488C102.341 74.4956 103.474 74.4635 104.6 74.5531ZM112.25 76.997C114.641 78.7535 112.399 80.8774 109.554 81.93L109.753 81.9612L110.562 82.0546C113.122 80.9584 115.046 78.7223 112.25 76.997ZM181.379 58.4749C181.379 61.3089 177.555 63.6384 172.661 63.9249L172.623 63.8938C169.229 64.0931 161.856 62.8038 161.856 58.4438C161.863 57.8636 162.02 57.295 162.311 56.7932C162.246 56.994 162.221 57.2056 162.236 57.4161C162.423 57.2435 162.633 57.0968 162.859 56.9801C161.308 59.185 164.466 61.7636 166.377 62.3865C170.512 63.7879 176.204 64.0744 179.492 61.0722C178.204 61.975 176.736 62.589 175.189 62.8723C173.448 63.1999 171.662 63.1999 169.921 62.8723C171.853 62.9858 173.793 62.8413 175.687 62.4425C178.284 61.857 180.059 60.6362 180.152 59.1352C180.27 56.843 176.441 54.7565 171.552 54.4824C168.513 54.3142 165.817 54.8748 164.154 55.8714C165.848 54.4699 168.277 53.8284 171.185 53.6789C167.897 53.4609 165.12 54.1647 162.915 56.0022C164.553 54.2457 167.841 53 171.633 53C177.02 53 181.379 55.4478 181.379 58.4749ZM172.829 55.3419C171.948 55.2211 171.056 55.1982 170.17 55.2734V55.2797C170.631 55.2983 171.11 55.3295 171.602 55.3918C175.382 55.8402 178.24 57.4285 177.985 58.9545C177.91 59.2332 177.771 59.4907 177.58 59.7068C177.389 59.923 177.15 60.0918 176.883 60.2002C177.219 60.0976 177.524 59.912 177.77 59.6606C178.016 59.4092 178.195 59.1 178.29 58.7614C178.508 57.3039 176.061 55.7717 172.829 55.3419ZM166.458 60.9103C164.291 60.1068 162.579 58.4874 164.403 57.142L164.385 57.1358C162.249 58.45 163.718 60.1442 165.686 60.9788L166.309 60.9103H166.458ZM186.678 85.8852C193.092 85.5115 198.092 82.4595 198.092 78.7534C198.092 74.7921 192.382 71.5781 185.333 71.5781C180.351 71.5781 176.061 73.1726 173.956 75.5084C176.845 73.1041 180.501 72.1823 184.779 72.4688C180.98 72.6619 177.798 73.5028 175.581 75.3402C177.761 74.0384 181.31 73.3034 185.264 73.5214C191.666 73.8827 196.71 76.6357 196.529 79.613C196.405 81.5812 194.076 83.182 190.682 83.973C188.2 84.4918 185.66 84.6824 183.128 84.5398C185.409 84.9645 187.748 84.9645 190.028 84.5398C192.057 84.1703 193.982 83.3649 195.67 82.1792C191.355 86.1156 183.901 85.7419 178.489 83.9045C175.998 83.0574 171.851 79.7189 173.887 76.8226C173.594 76.9776 173.321 77.1702 173.078 77.3956C173.057 77.1222 173.089 76.8475 173.171 76.5859C172.777 77.2413 172.562 77.9888 172.548 78.7534C172.548 84.4588 182.201 86.1468 186.653 85.8852H186.678ZM183.384 74.5616C183.419 74.5586 183.453 74.5557 183.488 74.553C184.072 74.5734 184.656 74.6161 185.239 74.6862C190.19 75.2717 193.933 77.3645 193.596 79.3576C193.496 79.7225 193.313 80.0596 193.063 80.3435C192.813 80.6273 192.501 80.8504 192.152 80.9957C193.223 80.5535 193.902 79.912 194.02 79.1272C194.306 77.215 191.099 75.2094 186.865 74.6488C185.746 74.4958 184.614 74.4637 183.488 74.553L183.371 74.5492L183.384 74.5616ZM175.83 76.997C173.445 78.7534 175.687 80.8774 178.526 81.93L178.327 81.9612L177.524 82.0546C174.965 80.9584 173.015 78.7223 175.83 76.997ZM113.774 64.148C114.12 64.7384 114.761 65.1349 115.495 65.1349H116.447C117.037 65.1349 117.567 64.8789 117.932 64.4719L133.049 71.7142L134.612 69.3047L133.516 71.8826C133.51 71.8881 133.504 71.8936 133.499 71.8992C133.492 71.9055 133.485 71.9118 133.479 71.9182L133.239 71.8052L133.478 71.9193C133.282 72.1106 133.121 72.3345 133.001 72.5813C132.916 72.7569 132.853 72.9419 132.812 73.132L115.829 77.8607C115.884 78.1548 115.912 78.4545 115.911 78.7561C115.913 79.0592 115.887 79.3608 115.834 79.6574L132.668 74.9802L132.567 76.5225L132.563 76.5711L118.321 79.8349L130.545 76.3219L115.798 79.8406C115.713 80.2377 115.58 80.6245 115.401 80.9922C114.155 83.5396 110.942 84.8788 108.358 85.5515C105.349 86.3221 102.183 86.6494 99.0674 86.1439C99.1804 88.0821 100.786 89.6189 102.751 89.6189C104.636 89.6189 106.192 88.2026 106.413 86.3747L132.31 80.4197L132.121 83.2875C132.009 85.019 133.217 86.4703 135.49 87.1928C135.984 87.3492 136.619 87.1 137.28 86.8409C137.778 86.6459 138.289 86.4454 138.765 86.408L139.42 86.4235C139.322 86.5037 139.27 86.5879 139.27 86.6747C139.27 86.9861 139.936 87.2664 140.976 87.447C141.054 87.7548 141.064 88.0761 141.005 88.3882C140.946 88.7002 140.819 88.9955 140.634 89.2533L140.584 89.3281C140.139 90.0003 139.903 90.7891 139.905 91.5953C139.905 92.6921 140.341 93.7441 141.116 94.5197C141.891 95.2946 142.941 95.7302 144.037 95.731C145.132 95.7302 146.183 95.2946 146.957 94.5197C147.733 93.7441 148.169 92.6921 148.169 91.5953C148.171 90.7891 147.935 90.0003 147.49 89.3281L147.44 89.2533C147.252 88.9966 147.124 88.7016 147.063 88.3893C147.003 88.077 147.012 87.7552 147.091 87.447C148.137 87.2975 148.804 86.9861 148.804 86.6747C148.804 86.588 148.752 86.5039 148.653 86.4237L149.32 86.408C149.792 86.4453 150.301 86.6447 150.796 86.8391C151.458 87.0988 152.097 87.3495 152.596 87.1928C154.869 86.4703 156.077 85.019 155.959 83.2875L155.715 79.4774L151.264 81.0731L146.419 81.7956L151.22 80.799L155.694 79.1499L155.584 77.4449L156.146 80.5059L181.667 86.3745C181.888 88.2026 183.443 89.6189 185.329 89.6189C187.298 89.6189 188.906 88.076 189.013 86.1324C185.912 86.6321 182.757 86.3045 179.76 85.5359C177.175 84.8632 173.956 83.5241 172.71 80.9766C172.535 80.6164 172.404 80.2379 172.318 79.8492L157.535 76.3219L169.759 79.8349L155.529 76.5722L155.427 74.9843L172.282 79.6672C172.226 79.3625 172.199 79.0523 172.2 78.7405C172.199 78.4465 172.226 78.1542 172.279 77.8671L155.283 73.1363C155.243 72.9473 155.18 72.7634 155.095 72.5886C154.973 72.3384 154.81 72.1117 154.611 71.9179L170.153 64.4697C170.518 64.878 171.049 65.1349 171.639 65.1349H172.592C173.326 65.1349 173.967 64.7379 174.313 64.1469C171.982 64.5096 169.609 64.2612 167.336 63.6738C166.921 63.5651 166.485 63.4341 166.046 63.2769L153.675 69.0048C153.687 68.9731 153.698 68.9407 153.706 68.9077C153.745 68.7605 153.749 68.6061 153.717 68.4572L153.694 68.3658L165.96 63.246C165.587 63.1097 165.214 62.9542 164.85 62.7773L153.415 67.2511L153.25 66.5887C153.072 66.1499 152.743 65.7896 152.322 65.5734L150.528 64.6765L150.211 62.5588C150.18 62.1752 150.025 61.8122 149.769 61.5248L148.878 60.603C148.456 60.2117 147.903 59.9899 147.328 59.9801L144.04 59.6562L140.77 59.9988C140.195 60.0086 139.642 60.2304 139.22 60.6217L138.336 61.5186C138.078 61.8054 137.92 62.1683 137.887 62.5525L137.576 64.6703L135.776 65.5672C135.357 65.7837 135.03 66.1441 134.854 66.5824L134.686 67.257L123.232 62.7772C122.868 62.9537 122.495 63.1088 122.123 63.2449L134.407 68.3743L134.387 68.451C134.355 68.5999 134.359 68.7542 134.398 68.9015C134.408 68.9385 134.42 68.9748 134.434 69.0102L134.431 69.017L122.037 63.2757C121.597 63.4334 121.16 63.5647 120.744 63.6737C118.473 64.2604 116.103 64.509 113.774 64.148ZM131.928 80.5059L132.515 77.2999L132.393 79.1524L136.86 80.799L141.661 81.7956L136.816 81.0731L132.372 79.4796L132.31 80.4196L131.928 80.5059ZM155.031 71.7151L154.61 71.9169C154.596 71.9032 154.582 71.8897 154.568 71.8764L153.481 69.3187L153.482 69.3166L155.031 71.7151ZM121.539 62.1151L118.44 60.903V60.4697C118.44 59.3689 117.548 58.4766 116.447 58.4766H115.495C114.394 58.4766 113.502 59.3689 113.502 60.4697V62.3337C115.395 62.6144 117.4 62.5821 119 62.5089L118.458 62.8764C119.504 62.7055 120.534 62.4509 121.539 62.1151ZM174.585 62.3458C172.711 62.62 170.733 62.5884 169.148 62.509L169.684 62.8765C168.627 62.703 167.585 62.4447 166.57 62.1042L169.646 60.9005V60.4697C169.646 59.3689 170.539 58.4766 171.639 58.4766H172.592C173.693 58.4766 174.585 59.3689 174.585 60.4697V62.3458ZM189.019 83.8358C186.581 84.181 184.01 84.14 181.964 84.0411L182.668 84.5207C181.294 84.2935 179.94 83.956 178.62 83.5116C177.566 83.1215 176.591 82.5433 175.743 81.805C175.265 81.396 174.779 80.8987 174.409 80.3481L174.568 80.386C175.242 81.3409 176.454 82.0633 177.387 82.459L177.493 82.5088L178.421 82.3967L180.252 82.1102L178.707 81.5372C177.805 81.2314 176.962 80.7721 176.216 80.1793C175.717 79.8272 175.374 79.2956 175.259 78.6967L182.127 80.6084C182.763 79.498 183.959 78.75 185.329 78.75C187.367 78.75 189.019 80.4037 189.019 82.4435V83.8358ZM174.498 80.2831C174.237 79.8825 174.072 79.4429 174.062 78.971C174.051 78.7628 174.072 78.5658 174.12 78.3796L173.789 78.2874C173.718 78.9683 173.954 79.6335 174.338 80.2385L174.498 80.2831ZM112.368 81.7956C112.833 81.3887 113.309 80.8944 113.675 80.3471L113.547 80.3777C112.872 81.332 111.659 82.0541 110.73 82.4496L110.625 82.4995L109.697 82.3874L107.866 82.1008L109.404 81.5278C110.296 81.2202 111.128 80.7608 111.864 80.17C112.118 79.9924 112.334 79.766 112.5 79.504C112.656 79.2577 112.764 78.9845 112.819 78.6986L105.954 80.61C105.318 79.4987 104.122 78.75 102.751 78.75C100.713 78.75 99.061 80.4037 99.061 82.4435V83.8299C101.492 84.1713 104.052 84.1303 106.091 84.0317L105.387 84.5113C106.782 84.2863 108.157 83.9488 109.497 83.5023C110.55 83.1121 111.523 82.5338 112.368 81.7956ZM114.309 78.2837C114.371 78.9657 114.13 79.6318 113.747 80.2374L113.618 80.273C113.88 79.8726 114.045 79.4333 114.056 78.9616C114.041 78.7649 114.006 78.5711 113.952 78.3832L114.309 78.2837ZM144.37 83.2109L135.34 83.2608L144.395 83.3978L153.374 83.2608L144.37 83.2109ZM144.37 83.7891L135.34 83.8327L144.395 83.9759L153.374 83.8327L144.37 83.7891ZM135.34 84.403L144.37 84.3594L153.374 84.403L144.395 84.5462L135.34 84.403ZM144.37 84.9297L135.34 84.9795L144.395 85.1228L153.374 84.9795L144.37 84.9297ZM142.353 88.9436C142.852 88.6113 143.438 88.435 144.037 88.4374L144.034 88.4374H144.04L144.037 88.4374C144.637 88.4356 145.223 88.6119 145.722 88.944C146.222 89.2768 146.612 89.7509 146.842 90.3059C146.489 89.9127 146.057 89.5982 145.574 89.3829C145.091 89.1676 144.568 89.0564 144.04 89.0564C143.511 89.0564 142.989 89.1676 142.506 89.3829C142.023 89.5982 141.591 89.9127 141.238 90.3059C141.466 89.7509 141.854 89.2765 142.353 88.9436ZM142.806 90.8895C143.138 90.5719 143.58 90.3942 144.04 90.3931H144.046C144.506 90.3942 144.948 90.5719 145.28 90.8895C145.613 91.2071 145.811 91.6404 145.833 92.0998C145.587 91.8865 145.302 91.7235 144.993 91.6202C145.097 91.787 145.155 91.9788 145.16 92.1756C145.166 92.3725 145.118 92.5671 145.023 92.7394C144.928 92.9116 144.788 93.0552 144.618 93.1552C144.449 93.2552 144.255 93.3079 144.059 93.3079C143.862 93.3079 143.668 93.2552 143.499 93.1552C143.329 93.0552 143.19 92.9116 143.094 92.7394C142.999 92.5671 142.951 92.3725 142.957 92.1756C142.962 91.9788 143.02 91.787 143.124 91.6202C142.804 91.7185 142.507 91.8817 142.253 92.0998C142.275 91.6404 142.473 91.2071 142.806 90.8895ZM142.626 93.1399C143.019 93.476 143.523 93.6536 144.04 93.6382C144.558 93.6528 145.064 93.4753 145.46 93.1399C145.314 93.3878 145.107 93.5934 144.858 93.7365C144.609 93.8796 144.327 93.9552 144.04 93.9559C143.753 93.956 143.472 93.8806 143.224 93.7374C142.976 93.5942 142.77 93.3881 142.626 93.1399ZM148.623 69.2495C148.623 70.3333 146.531 71.2177 144.04 71.2177C141.518 71.2177 139.463 70.3333 139.463 69.2495C139.463 68.1657 141.518 67.2812 144.04 67.2812C146.562 67.2812 148.623 68.1657 148.623 69.2495ZM144.04 67.5781C146.219 67.5781 148.013 68.201 148.268 69.0418C147.645 68.3878 146.001 67.9145 144.04 67.9145C142.078 67.9145 140.409 68.3878 139.812 69.0418C140.067 68.2446 141.879 67.5781 144.04 67.5781ZM146.605 63.1406L150.51 64.6729L150.46 64.3427L146.605 63.1406ZM141.481 63.1406L137.576 64.6729L137.626 64.3427L141.481 63.1406Z" fill="#5999E5"/>
<defs>
<filter id="filter0_ddd_987_74265" x="25" y="130" width="240" height="121.617" filterUnits="userSpaceOnUse" color-interpolation-filters="sRGB">
<feFlood flood-opacity="0" result="BackgroundImageFix"/>
<feColorMatrix in="SourceAlpha" type="matrix" values="0 0 0 0 0 0 0 0 0 0 0 0 0 0 0 0 0 0 127 0" result="hardAlpha"/>
<feOffset dy="1"/>
<feGaussianBlur stdDeviation="7"/>
<feColorMatrix type="matrix" values="0 0 0 0 0 0 0 0 0 0 0 0 0 0 0 0 0 0 0.12 0"/>
<feBlend mode="normal" in2="BackgroundImageFix" result="effect1_dropShadow_987_74265"/>
<feColorMatrix in="SourceAlpha" type="matrix" values="0 0 0 0 0 0 0 0 0 0 0 0 0 0 0 0 0 0 127 0" result="hardAlpha"/>
<feOffset dy="5"/>
<feGaussianBlur stdDeviation="4"/>
<feColorMatrix type="matrix" values="0 0 0 0 0 0 0 0 0 0 0 0 0 0 0 0 0 0 0.14 0"/>
<feBlend mode="normal" in2="effect1_dropShadow_987_74265" result="effect2_dropShadow_987_74265"/>
<feColorMatrix in="SourceAlpha" type="matrix" values="0 0 0 0 0 0 0 0 0 0 0 0 0 0 0 0 0 0 127 0" result="hardAlpha"/>
<feMorphology radius="1" operator="erode" in="SourceAlpha" result="effect3_dropShadow_987_74265"/>
<feOffset dy="3"/>
<feGaussianBlur stdDeviation="2.5"/>
<feColorMatrix type="matrix" values="0 0 0 0 0 0 0 0 0 0 0 0 0 0 0 0 0 0 0.2 0"/>
<feBlend mode="normal" in2="effect2_dropShadow_987_74265" result="effect3_dropShadow_987_74265"/>
<feBlend mode="normal" in="SourceGraphic" in2="effect3_dropShadow_987_74265" result="shape"/>
</filter>
<clipPath id="clip0_987_74265">
<rect width="262" height="145" fill="white" transform="translate(14 101)"/>
</clipPath>
</defs>
</svg>
