<svg width="32" height="32" viewBox="0 0 32 32" fill="none" xmlns="http://www.w3.org/2000/svg">
<circle cx="16" cy="16" r="16" fill="#F44336"/>
<path d="M8.4962 20.9966L6.2562 17.1046H5.0382V20.9966H3.4422V11.2666H6.8022C7.54887 11.2666 8.17887 11.3973 8.6922 11.6586C9.21487 11.92 9.6022 12.27 9.8542 12.7086C10.1155 13.1473 10.2462 13.6373 10.2462 14.1786C10.2462 14.8133 10.0595 15.392 9.6862 15.9146C9.3222 16.428 8.75753 16.778 7.9922 16.9646L10.4002 20.9966H8.4962ZM5.0382 15.8306H6.8022C7.39953 15.8306 7.84753 15.6813 8.1462 15.3826C8.4542 15.084 8.6082 14.6826 8.6082 14.1786C8.6082 13.6746 8.45887 13.2826 8.1602 13.0026C7.86153 12.7133 7.40887 12.5686 6.8022 12.5686H5.0382V15.8306Z" fill="white"/>
<path d="M13.9839 12.5546V15.4106H17.3439V16.7126H13.9839V19.6946H17.7639V20.9966H12.3879V11.2526H17.7639V12.5546H13.9839Z" fill="white"/>
<path d="M19.2977 16.1106C19.2977 15.1586 19.517 14.3046 19.9557 13.5486C20.4037 12.7926 21.0057 12.2046 21.7617 11.7846C22.527 11.3553 23.3624 11.1406 24.2677 11.1406C25.3037 11.1406 26.223 11.3973 27.0257 11.9106C27.8377 12.4146 28.4257 13.1333 28.7897 14.0666H26.8717C26.6197 13.5533 26.2697 13.1706 25.8217 12.9186C25.3737 12.6666 24.8557 12.5406 24.2677 12.5406C23.6237 12.5406 23.0497 12.6853 22.5457 12.9746C22.0417 13.264 21.645 13.6793 21.3557 14.2206C21.0757 14.762 20.9357 15.392 20.9357 16.1106C20.9357 16.8293 21.0757 17.4593 21.3557 18.0006C21.645 18.542 22.0417 18.962 22.5457 19.2606C23.0497 19.55 23.6237 19.6946 24.2677 19.6946C24.8557 19.6946 25.3737 19.5686 25.8217 19.3166C26.2697 19.0646 26.6197 18.682 26.8717 18.1686H28.7897C28.4257 19.102 27.8377 19.8206 27.0257 20.3246C26.223 20.8286 25.3037 21.0806 24.2677 21.0806C23.353 21.0806 22.5177 20.8706 21.7617 20.4506C21.0057 20.0213 20.4037 19.4286 19.9557 18.6726C19.517 17.9166 19.2977 17.0626 19.2977 16.1106Z" fill="white"/>
</svg>
