<svg width="38" height="38" viewBox="0 0 38 38" fill="none" xmlns="http://www.w3.org/2000/svg">
<path fill-rule="evenodd" clip-rule="evenodd" d="M29.0236 16.0995V9.02211C29.0236 7.90995 28.1228 7 27.0219 7H3.00168C1.90076 7 1 7.90995 1 9.02211V29.2432C1 30.3554 1.90076 31.2653 3.00168 31.2653H27.0219C28.1228 31.2653 29.0236 30.3554 29.0236 29.2432V22.1658L37.0303 30.2543V8.01105L29.0236 16.0995ZM14.971 23.175C17.4076 23.175 19.3829 21.1997 19.3829 18.7631C19.3829 16.3265 17.4076 14.3512 14.971 14.3512C12.5344 14.3512 10.5591 16.3265 10.5591 18.7631C10.5591 21.1997 12.5344 23.175 14.971 23.175ZM14.971 26.1162C19.032 26.1162 22.3241 22.8241 22.3241 18.7631C22.3241 14.7021 19.032 11.41 14.971 11.41C10.91 11.41 7.61787 14.7021 7.61787 18.7631C7.61787 22.8241 10.91 26.1162 14.971 26.1162ZM4.5 12C5.32843 12 6 11.3284 6 10.5C6 9.67157 5.32843 9 4.5 9C3.67157 9 3 9.67157 3 10.5C3 11.3284 3.67157 12 4.5 12Z" fill="#F44336"/>
</svg>
