<svg width="38" height="40" viewBox="0 0 38 40" fill="none" xmlns="http://www.w3.org/2000/svg">
<path d="M33.28 21.8769C33.36 21.2769 33.4 20.6569 33.4 19.9969C33.4 19.3569 33.36 18.7169 33.26 18.1169L37.32 14.9569C37.68 14.6769 37.78 14.1369 37.56 13.7369L33.72 7.09688C33.48 6.65688 32.98 6.51687 32.54 6.65687L27.76 8.57687C26.76 7.81687 25.7 7.17687 24.52 6.69687L23.8 1.61687C23.72 1.13687 23.32 0.796875 22.84 0.796875H15.16C14.68 0.796875 14.3 1.13687 14.22 1.61687L13.5 6.69687C12.32 7.17687 11.24 7.83687 10.26 8.57687L5.47998 6.65687C5.03998 6.49687 4.53998 6.65688 4.29998 7.09688L0.479975 13.7369C0.239975 14.1569 0.319975 14.6769 0.719975 14.9569L4.77998 18.1169C4.67998 18.7169 4.59998 19.3769 4.59998 19.9969C4.59998 20.6169 4.63998 21.2769 4.73998 21.8769L0.679975 25.0369C0.319975 25.3169 0.219975 25.8569 0.439975 26.2569L4.27998 32.8969C4.51998 33.3369 5.01998 33.4769 5.45998 33.3369L10.24 31.4169C11.24 32.1769 12.3 32.8169 13.48 33.2969L14.2 38.3769C14.3 38.8569 14.68 39.1969 15.16 39.1969H22.84C23.32 39.1969 23.72 38.8569 23.78 38.3769L24.5 33.2969C25.68 32.8169 26.76 32.1769 27.74 31.4169L32.52 33.3369C32.96 33.4969 33.46 33.3369 33.7 32.8969L37.54 26.2569C37.78 25.8169 37.68 25.3169 37.3 25.0369L33.28 21.8769ZM19 27.1969C15.04 27.1969 11.8 23.9569 11.8 19.9969C11.8 16.0369 15.04 12.7969 19 12.7969C22.96 12.7969 26.2 16.0369 26.2 19.9969C26.2 23.9569 22.96 27.1969 19 27.1969Z" fill="#F5F6F8"/>
</svg>
