<svg width="242" height="127" viewBox="0 0 242 127" fill="none" xmlns="http://www.w3.org/2000/svg">
<g filter="url(#filter0_d_1001_7290)">
<g filter="url(#filter1_i_1001_7290)">
<path d="M214 21H27.5C24.7386 21 22.5 23.2386 22.5 26V71.1744C22.5 73.4323 24.0132 75.41 26.1925 76.0004L122.648 102.134C123.532 102.373 124.465 102.365 125.346 102.11L215.39 76.0449C217.528 75.426 219 73.4681 219 71.2421V26C219 23.2386 216.761 21 214 21Z" fill="url(#paint0_radial_1001_7290)"/>
</g>
<g filter="url(#filter2_i_1001_7290)">
<path fill-rule="evenodd" clip-rule="evenodd" d="M20 26.5C20 22.3579 23.3579 19 27.5 19H214C218.142 19 221.5 22.3579 221.5 26.5V71.7421C221.5 75.0811 219.293 78.0179 216.085 78.9463L126.041 105.012C124.721 105.394 123.321 105.406 121.994 105.047L25.5387 78.9134C22.2698 78.0278 20 75.0612 20 71.6744V26.5ZM27.5 24C26.1193 24 25 25.1193 25 26.5V71.6744C25 72.8033 25.7566 73.7922 26.8462 74.0874L123.302 100.221C123.744 100.34 124.21 100.336 124.651 100.209L214.695 74.1435C215.764 73.834 216.5 72.8551 216.5 71.7421V26.5C216.5 25.1193 215.381 24 214 24H27.5Z" fill="#5999E5"/>
</g>
<path d="M68.6825 63.224C67.1252 63.224 65.7172 62.9573 64.4585 62.424C63.2212 61.8907 62.2398 61.1227 61.5145 60.12C60.7892 59.1173 60.4158 57.9333 60.3945 56.568H65.1945C65.2585 57.4853 65.5785 58.2107 66.1545 58.744C66.7518 59.2773 67.5625 59.544 68.5865 59.544C69.6318 59.544 70.4532 59.2987 71.0505 58.808C71.6478 58.296 71.9465 57.6347 71.9465 56.824C71.9465 56.1627 71.7438 55.6187 71.3385 55.192C70.9332 54.7653 70.4212 54.4347 69.8025 54.2C69.2052 53.944 68.3732 53.6667 67.3065 53.368C65.8558 52.9413 64.6718 52.5253 63.7545 52.12C62.8585 51.6933 62.0798 51.064 61.4185 50.232C60.7785 49.3787 60.4585 48.248 60.4585 46.84C60.4585 45.5173 60.7892 44.3653 61.4505 43.384C62.1118 42.4027 63.0398 41.656 64.2345 41.144C65.4292 40.6107 66.7945 40.344 68.3305 40.344C70.6345 40.344 72.5012 40.9093 73.9305 42.04C75.3812 43.1493 76.1812 44.7067 76.3305 46.712H71.4025C71.3598 45.944 71.0292 45.3147 70.4105 44.824C69.8132 44.312 69.0132 44.056 68.0105 44.056C67.1358 44.056 66.4318 44.28 65.8985 44.728C65.3865 45.176 65.1305 45.8267 65.1305 46.68C65.1305 47.2773 65.3225 47.7787 65.7065 48.184C66.1118 48.568 66.6025 48.888 67.1785 49.144C67.7758 49.3787 68.6078 49.656 69.6745 49.976C71.1252 50.4027 72.3092 50.8293 73.2265 51.256C74.1438 51.6827 74.9332 52.3227 75.5945 53.176C76.2558 54.0293 76.5865 55.1493 76.5865 56.536C76.5865 57.7307 76.2772 58.84 75.6585 59.864C75.0398 60.888 74.1332 61.7093 72.9385 62.328C71.7438 62.9253 70.3252 63.224 68.6825 63.224ZM82.8425 43.16C82.0532 43.16 81.3918 42.9147 80.8585 42.424C80.3465 41.912 80.0905 41.2827 80.0905 40.536C80.0905 39.7893 80.3465 39.1707 80.8585 38.68C81.3918 38.168 82.0532 37.912 82.8425 37.912C83.6318 37.912 84.2825 38.168 84.7945 38.68C85.3278 39.1707 85.5945 39.7893 85.5945 40.536C85.5945 41.2827 85.3278 41.912 84.7945 42.424C84.2825 42.9147 83.6318 43.16 82.8425 43.16ZM85.0505 45.272V63H80.5705V45.272H85.0505ZM96.5208 44.984C97.8434 44.984 99.0061 45.2507 100.009 45.784C101.011 46.296 101.801 46.968 102.377 47.8V45.272H106.889V63.128C106.889 64.7707 106.558 66.232 105.897 67.512C105.235 68.8133 104.243 69.8373 102.921 70.584C101.598 71.352 99.9981 71.736 98.1208 71.736C95.6034 71.736 93.5341 71.1493 91.9128 69.976C90.3128 68.8027 89.4061 67.2027 89.1928 65.176H93.6408C93.8754 65.9867 94.3768 66.6267 95.1448 67.096C95.9341 67.5867 96.8834 67.832 97.9928 67.832C99.2941 67.832 100.35 67.4373 101.161 66.648C101.971 65.88 102.377 64.7067 102.377 63.128V60.376C101.801 61.208 101.001 61.9013 99.9768 62.456C98.9741 63.0107 97.8221 63.288 96.5208 63.288C95.0274 63.288 93.6621 62.904 92.4248 62.136C91.1874 61.368 90.2061 60.2907 89.4808 58.904C88.7768 57.496 88.4248 55.8853 88.4248 54.072C88.4248 52.28 88.7768 50.6907 89.4808 49.304C90.2061 47.9173 91.1768 46.8507 92.3928 46.104C93.6301 45.3573 95.0061 44.984 96.5208 44.984ZM102.377 54.136C102.377 53.048 102.163 52.12 101.737 51.352C101.31 50.5627 100.734 49.9653 100.009 49.56C99.2834 49.1333 98.5048 48.92 97.6728 48.92C96.8408 48.92 96.0728 49.1227 95.3688 49.528C94.6648 49.9333 94.0888 50.5307 93.6408 51.32C93.2141 52.088 93.0008 53.0053 93.0008 54.072C93.0008 55.1387 93.2141 56.0773 93.6408 56.888C94.0888 57.6773 94.6648 58.2853 95.3688 58.712C96.0941 59.1387 96.8621 59.352 97.6728 59.352C98.5048 59.352 99.2834 59.1493 100.009 58.744C100.734 58.3173 101.31 57.72 101.737 56.952C102.163 56.1627 102.377 55.224 102.377 54.136ZM121.188 45.016C123.3 45.016 125.007 45.688 126.308 47.032C127.61 48.3547 128.26 50.2107 128.26 52.6V63H123.78V53.208C123.78 51.8 123.428 50.7227 122.724 49.976C122.02 49.208 121.06 48.824 119.844 48.824C118.607 48.824 117.626 49.208 116.9 49.976C116.196 50.7227 115.844 51.8 115.844 53.208V63H111.364V45.272H115.844V47.48C116.442 46.712 117.199 46.1147 118.116 45.688C119.055 45.24 120.079 45.016 121.188 45.016ZM144.761 40.664V54.488C144.761 56.0027 145.156 57.1653 145.945 57.976C146.735 58.7653 147.844 59.16 149.273 59.16C150.724 59.16 151.844 58.7653 152.633 57.976C153.423 57.1653 153.817 56.0027 153.817 54.488V40.664H158.329V54.456C158.329 56.3547 157.913 57.9653 157.081 59.288C156.271 60.5893 155.172 61.5707 153.785 62.232C152.42 62.8933 150.895 63.224 149.209 63.224C147.545 63.224 146.031 62.8933 144.665 62.232C143.321 61.5707 142.255 60.5893 141.465 59.288C140.676 57.9653 140.281 56.3547 140.281 54.456V40.664H144.761ZM167.238 47.832C167.814 47.0213 168.603 46.3493 169.606 45.816C170.63 45.2613 171.793 44.984 173.094 44.984C174.609 44.984 175.974 45.3573 177.19 46.104C178.427 46.8507 179.398 47.9173 180.102 49.304C180.827 50.6693 181.19 52.2587 181.19 54.072C181.19 55.8853 180.827 57.496 180.102 58.904C179.398 60.2907 178.427 61.368 177.19 62.136C175.974 62.904 174.609 63.288 173.094 63.288C171.793 63.288 170.641 63.0213 169.638 62.488C168.657 61.9547 167.857 61.2827 167.238 60.472V71.448H162.758V45.272H167.238V47.832ZM176.614 54.072C176.614 53.0053 176.39 52.088 175.942 51.32C175.515 50.5307 174.939 49.9333 174.214 49.528C173.51 49.1227 172.742 48.92 171.91 48.92C171.099 48.92 170.331 49.1333 169.606 49.56C168.902 49.9653 168.326 50.5627 167.878 51.352C167.451 52.1413 167.238 53.0693 167.238 54.136C167.238 55.2027 167.451 56.1307 167.878 56.92C168.326 57.7093 168.902 58.3173 169.606 58.744C170.331 59.1493 171.099 59.352 171.91 59.352C172.742 59.352 173.51 59.1387 174.214 58.712C174.939 58.2853 175.515 57.6773 175.942 56.888C176.39 56.0987 176.614 55.16 176.614 54.072Z" fill="white"/>
</g>
<defs>
<filter id="filter0_d_1001_7290" x="0" y="0" width="241.5" height="126.305" filterUnits="userSpaceOnUse" color-interpolation-filters="sRGB">
<feFlood flood-opacity="0" result="BackgroundImageFix"/>
<feColorMatrix in="SourceAlpha" type="matrix" values="0 0 0 0 0 0 0 0 0 0 0 0 0 0 0 0 0 0 127 0" result="hardAlpha"/>
<feOffset dy="1"/>
<feGaussianBlur stdDeviation="10"/>
<feComposite in2="hardAlpha" operator="out"/>
<feColorMatrix type="matrix" values="0 0 0 0 0 0 0 0 0 0 0 0 0 0 0 0 0 0 0.25 0"/>
<feBlend mode="normal" in2="BackgroundImageFix" result="effect1_dropShadow_1001_7290"/>
<feBlend mode="normal" in="SourceGraphic" in2="effect1_dropShadow_1001_7290" result="shape"/>
</filter>
<filter id="filter1_i_1001_7290" x="22.5" y="21" width="198.5" height="83.3047" filterUnits="userSpaceOnUse" color-interpolation-filters="sRGB">
<feFlood flood-opacity="0" result="BackgroundImageFix"/>
<feBlend mode="normal" in="SourceGraphic" in2="BackgroundImageFix" result="shape"/>
<feColorMatrix in="SourceAlpha" type="matrix" values="0 0 0 0 0 0 0 0 0 0 0 0 0 0 0 0 0 0 127 0" result="hardAlpha"/>
<feOffset dx="2" dy="2"/>
<feGaussianBlur stdDeviation="2"/>
<feComposite in2="hardAlpha" operator="arithmetic" k2="-1" k3="1"/>
<feColorMatrix type="matrix" values="0 0 0 0 0 0 0 0 0 0 0 0 0 0 0 0 0 0 0.15 0"/>
<feBlend mode="normal" in2="shape" result="effect1_innerShadow_1001_7290"/>
</filter>
<filter id="filter2_i_1001_7290" x="20" y="19" width="203.5" height="88.3047" filterUnits="userSpaceOnUse" color-interpolation-filters="sRGB">
<feFlood flood-opacity="0" result="BackgroundImageFix"/>
<feBlend mode="normal" in="SourceGraphic" in2="BackgroundImageFix" result="shape"/>
<feColorMatrix in="SourceAlpha" type="matrix" values="0 0 0 0 0 0 0 0 0 0 0 0 0 0 0 0 0 0 127 0" result="hardAlpha"/>
<feOffset dx="2" dy="2"/>
<feGaussianBlur stdDeviation="1"/>
<feComposite in2="hardAlpha" operator="arithmetic" k2="-1" k3="1"/>
<feColorMatrix type="matrix" values="0 0 0 0 0 0 0 0 0 0 0 0 0 0 0 0 0 0 0.15 0"/>
<feBlend mode="normal" in2="shape" result="effect1_innerShadow_1001_7290"/>
</filter>
<radialGradient id="paint0_radial_1001_7290" cx="0" cy="0" r="1" gradientUnits="userSpaceOnUse" gradientTransform="translate(125 57) rotate(-90) scale(78 188.061)">
<stop stop-color="#5585CC"/>
<stop offset="1" stop-color="#062553"/>
</radialGradient>
</defs>
</svg>
