<svg width="36" height="36" viewBox="0 0 36 36" fill="none" xmlns="http://www.w3.org/2000/svg">
<path d="M18 0C8.06 0 0 8.06 0 18C0 27.94 8.06 36 18 36C19.66 36 21 34.66 21 33C21 32.22 20.7 31.52 20.22 30.98C19.76 30.46 19.46 29.76 19.46 29C19.46 27.34 20.8 26 22.46 26H26C31.52 26 36 21.52 36 16C36 7.16 27.94 0 18 0ZM7 18C5.34 18 4 16.66 4 15C4 13.34 5.34 12 7 12C8.66 12 10 13.34 10 15C10 16.66 8.66 18 7 18ZM13 10C11.34 10 10 8.66 10 7C10 5.34 11.34 4 13 4C14.66 4 16 5.34 16 7C16 8.66 14.66 10 13 10ZM23 10C21.34 10 20 8.66 20 7C20 5.34 21.34 4 23 4C24.66 4 26 5.34 26 7C26 8.66 24.66 10 23 10ZM29 18C27.34 18 26 16.66 26 15C26 13.34 27.34 12 29 12C30.66 12 32 13.34 32 15C32 16.66 30.66 18 29 18Z" fill="#F5F6F8"/>
</svg>
